<svg width="188" height="200" viewBox="0 0 188 200" xmlns="http://www.w3.org/2000/svg">
  <title>NgShop Logo</title>
  <g fill="none" fill-rule="evenodd">
    <path d="M94 0L1 33.2l14 123L94 200l79-43.7 14-123" fill="currentColor"/>
    <path d="M67.3 132c-5.8 0-10.6 4.8-10.6 10.7 0 5.8 4.8 10.6 10.6 10.6 6 0 10.7-4.8 10.7-10.6 0-6-4.8-10.7-10.7-10.7zm-32-85.3v10.6H46l19.2 40.5-7.2 13c-1 1.6-1.3 3.3-1.3 5.2 0 6 4.8 10.7 10.6 10.7h64V116H69.6c-.8 0-1.4-.6-1.4-1.3l.2-.7 4.8-8.7H113c4 0 7.5-2.2 9.3-5.5l19-34.6c.5-.7.7-1.6.7-2.5 0-3-2.4-5.4-5.3-5.4h-79l-5-10.6H35.4zm85.4 85.3c-6 0-10.6 4.8-10.6 10.7 0 5.8 5 10.6 11 10.6 5.8 0 10.6-4.8 10.6-10.6 0-6-4.8-10.7-10.6-10.7z" fill="#FFF"/>
    <path d="M30 36h128v128H30"/>
  </g>
</svg>
